<svg xmlns="http://www.w3.org/2000/svg" viewBox="0 0 103.71 103.65">
  <!-- Pink/Red square -->
  <path
    d="M103.71,81.03v-19.5c0-2.13-1.73-3.86-3.86-3.86h-38.1c-2.26,0-4.09,1.83-4.09,4.09v37.66c0,2.33,1.89,4.22,4.22,4.22h19.22c12.49,0,22.62-10.13,22.62-22.62Z"
    fill="#ee2b63"
  />

  <!-- White square -->
  <path
    d="M81.09,0h-19.22C59.55,0,57.66,1.89,57.66,4.22v38.39c0,2.26,1.83,4.09,4.09,4.09h38.1c2.13,0,3.86-1.73,3.86-3.86v-20.22C103.71,10.13,93.59,0,81.09,0Z"
    fill="#fff"
  />

  <!-- Yellow square -->
  <path
    d="M22.62,0C10.13,0,0,10.13,0,22.62v33.75h0v24.66C0,93.52,10.13,103.65,22.62,103.65h19.22c2.33,0,4.22-1.89,4.22-4.22V4.22c0-2.33-1.89-4.22-4.22-4.22h-19.22Z"
    fill="#e9b320"
  />
</svg>

